<?xml version="1.0" encoding="iso-8859-1"?>
<!-- Generator: Adobe Illustrator 19.0.0, SVG Export Plug-In . SVG Version: 6.00 Build 0)  -->
<svg version="1.1" id="Layer_1" xmlns="http://www.w3.org/2000/svg" xmlns:xlink="http://www.w3.org/1999/xlink" x="0px" y="0px"
	 viewBox="0 0 512 512" style="enable-background:new 0 0 512 512;" xml:space="preserve">
<path style="fill:#FF9811;" d="M256,40.421C114.615,40.421,0,136.94,0,256c0,18.594,2.796,36.638,8.052,53.85l29.099-29.099
	c31.572-31.572,82.757-31.57,114.328,0c31.572,31.572,31.573,82.757,0.001,114.328l-39.288,39.287
	c40.99,23.483,90.493,37.213,143.807,37.213c141.385,0,256-96.519,256-215.579S397.385,40.421,256,40.421z"/>
<path style="fill:#FF5023;" d="M0,256c0,18.594,2.796,36.638,8.052,53.85l29.099-29.099c31.572-31.572,82.757-31.57,114.328,0
	c31.572,31.572,31.573,82.757,0.001,114.328l-39.288,39.287c40.99,23.483,90.493,37.213,143.807,37.213V40.421
	C114.615,40.421,0,136.94,0,256z"/>
<circle style="fill:#FFFFFF;" cx="256" cy="384" r="40.421"/>
<circle style="fill:#6C0014;" cx="128" cy="168.421" r="47.158"/>
<circle style="fill:#FF5023;" cx="384" cy="168.421" r="47.158"/>
<circle style="fill:#FFDA44;" cx="424.421" cy="289.684" r="47.158"/>
<circle style="fill:#D80027;" cx="256" cy="128" r="47.158"/>
<g>
</g>
<g>
</g>
<g>
</g>
<g>
</g>
<g>
</g>
<g>
</g>
<g>
</g>
<g>
</g>
<g>
</g>
<g>
</g>
<g>
</g>
<g>
</g>
<g>
</g>
<g>
</g>
<g>
</g>
</svg>
